<svg width="30" height="30" viewBox="0 0 30 30" fill="none" xmlns="http://www.w3.org/2000/svg">
<path d="M30 15C30 23.2843 23.2843 30 15 30C6.71573 30 0 23.2843 0 15C0 6.71573 6.71573 0 15 0C23.2843 0 30 6.71573 30 15Z" fill="white"/>
<path fill-rule="evenodd" clip-rule="evenodd" d="M15 27.1875C21.731 27.1875 27.1875 21.731 27.1875 15C27.1875 8.26903 21.731 2.8125 15 2.8125C8.26903 2.8125 2.8125 8.26903 2.8125 15C2.8125 21.731 8.26903 27.1875 15 27.1875ZM15 30C23.2843 30 30 23.2843 30 15C30 6.71573 23.2843 0 15 0C6.71573 0 0 6.71573 0 15C0 23.2843 6.71573 30 15 30Z" fill="#EFEFEF"/>
<path fill-rule="evenodd" clip-rule="evenodd" d="M20.625 15C20.625 15.4142 20.3102 15.75 19.9219 15.75L10.0781 15.75C9.6898 15.75 9.375 15.4142 9.375 15C9.375 14.5858 9.6898 14.25 10.0781 14.25L19.9219 14.25C20.3102 14.25 20.625 14.5858 20.625 15Z" fill="#111111"/>
<path fill-rule="evenodd" clip-rule="evenodd" d="M20.4175 14.5028C20.6942 14.7774 20.6942 15.2226 20.4175 15.4972L15.4592 20.4191C15.1826 20.6936 14.7341 20.6936 14.4575 20.4191C14.1808 20.1445 14.1808 19.6993 14.4575 19.4247L18.9149 15L14.4575 10.5753C14.1808 10.3007 14.1808 9.85553 14.4575 9.58094C14.7341 9.30635 15.1826 9.30635 15.4592 9.58094L20.4175 14.5028Z" fill="#111111"/>
</svg>
