<svg width="64" height="64" viewBox="0 0 64 64" fill="none" xmlns="http://www.w3.org/2000/svg">
<circle cx="32" cy="32" r="29" fill="white" stroke="#EFEFEF" stroke-width="6"/>
<path fill-rule="evenodd" clip-rule="evenodd" d="M31.9999 20C32.8836 20 33.5999 20.6716 33.5999 21.5V42.5C33.5999 43.3284 32.8836 44 31.9999 44C31.1162 44 30.3999 43.3284 30.3999 42.5V21.5C30.3999 20.6716 31.1162 20 31.9999 20Z" fill="#111111"/>
<path fill-rule="evenodd" clip-rule="evenodd" d="M30.9393 20.4426C31.5251 19.8525 32.4749 19.8525 33.0607 20.4426L43.5607 31.0204C44.1464 31.6105 44.1464 32.5673 43.5607 33.1574C42.9749 33.7475 42.0251 33.7475 41.4393 33.1574L32 23.6481L22.5607 33.1574C21.9749 33.7475 21.0251 33.7475 20.4393 33.1574C19.8536 32.5673 19.8536 31.6105 20.4393 31.0204L30.9393 20.4426Z" fill="#111111"/>
</svg>
