<svg width="1920" height="408" viewBox="0 0 1920 408" fill="none" xmlns="http://www.w3.org/2000/svg">
<rect width="1920" height="408" fill="#FF5A00"/>
<path d="M777.07 125.608C775.608 127.988 772.004 129.892 768.332 130.538V128.158C771.97 127.41 775.676 125.268 775.676 121.494V120.542H778.396V121.46C778.396 125.166 782.136 127.104 785.774 127.75V130.13C782.136 129.586 778.6 127.92 777.07 125.608ZM793.152 138.766H790.432V133.224C788.97 134.312 786.624 134.89 783.156 134.89H777.546V138.936H774.792V134.89H767.482V132.51H783.802C786.76 132.51 789.14 131.898 790.432 131.014V120.372H793.152V138.766ZM790.432 143.458V140.67H793.152V151.142H770.542V140.67H773.296V143.458H790.432ZM790.432 145.736H773.296V148.898H790.432V145.736ZM823.105 131.796V123.296H801.889V120.916H825.825V131.286C825.825 134.754 825.553 138.562 825.009 141.248H822.323C822.799 138.63 823.105 134.958 823.105 131.796ZM800.427 149.442V147.062H809.947V132.272H812.701V147.062H827.491V149.442H800.427ZM855.064 123.126H843.402V120.712H857.818V122.446C857.818 132.34 852.004 137.372 842.62 138.528V136.148C850.372 135.162 855.064 130.606 855.064 123.126ZM867.474 120.372V128.974H872.132V131.388H867.474V141.554H864.754V120.372H867.474ZM847.89 140.976V148.592H868.052V150.938H845.17V140.976H847.89ZM887.397 129.348V123.058H881.889V134.958H886.853C887.227 133.428 887.397 131.32 887.397 129.348ZM879.203 134.958V123.058H876.075V120.712H893.279V123.058H890.083V129.212C890.083 131.252 889.879 133.394 889.403 134.958H889.539C891.545 134.958 893.415 134.72 894.911 134.176V136.386C893.483 137.032 891.511 137.236 889.369 137.236H875.701V134.958H879.203ZM892.973 127.172V125.03H898.243V120.372H900.963V141.554H898.243V132.272H892.973V130.062H898.243V127.172H892.973ZM901.541 150.938H878.353V140.976H881.107V148.592H901.541V150.938ZM907.591 125.268V123.024H914.935V119.42H917.621V123.024H924.863V125.268H907.591ZM911.195 133.904C911.195 134.992 911.671 135.842 912.453 136.522C913.405 137.27 914.731 137.678 916.227 137.678C917.723 137.678 919.083 137.27 920.035 136.522C920.817 135.842 921.293 134.992 921.293 133.904C921.293 132.816 920.817 131.932 920.035 131.286C919.083 130.504 917.723 130.096 916.227 130.096C914.731 130.096 913.405 130.504 912.453 131.286C911.671 131.932 911.195 132.816 911.195 133.904ZM908.543 133.904C908.543 132.068 909.325 130.538 910.685 129.518C912.045 128.464 914.017 127.886 916.227 127.886C918.471 127.886 920.409 128.464 921.803 129.518C923.163 130.538 923.945 132.068 923.945 133.904C923.945 135.706 923.163 137.236 921.803 138.256C920.409 139.31 918.471 139.888 916.227 139.888C914.017 139.888 912.045 139.31 910.685 138.256C909.325 137.236 908.543 135.706 908.543 133.904ZM932.751 120.372V129.348H937.409V131.762H932.751V142.472H930.031V120.372H932.751ZM913.167 142.234V148.592H933.329V150.938H910.447V142.234H913.167ZM961.378 119.42V123.296H968.688V125.676H951.416V123.296H958.658V119.42H961.378ZM955.02 134.958C955.02 136.25 955.564 137.304 956.414 138.086C957.332 138.902 958.624 139.378 960.086 139.378C961.548 139.378 962.84 138.902 963.758 138.086C964.608 137.304 965.152 136.25 965.152 134.958C965.152 133.632 964.608 132.578 963.758 131.83C962.84 130.98 961.548 130.504 960.086 130.504C958.624 130.504 957.332 130.98 956.414 131.83C955.564 132.578 955.02 133.632 955.02 134.958ZM952.334 134.958C952.334 132.884 953.218 131.15 954.612 129.994C956.006 128.872 957.978 128.226 960.086 128.226C962.194 128.226 964.166 128.872 965.526 129.994C966.954 131.15 967.838 132.884 967.838 134.958C967.838 137.032 966.954 138.732 965.526 139.888C964.472 140.772 963.01 141.384 961.412 141.588V146.654H965.526C968.518 146.654 971.442 146.246 973.278 144.716V120.372H976.032V150.802H973.278V147.062C971.578 148.558 968.416 149.034 964.54 149.034H950.872V146.654H958.692V141.588C957.128 141.35 955.7 140.772 954.612 139.888C953.218 138.732 952.334 137.032 952.334 134.958ZM1006.09 131.796V123.296H984.871V120.916H1008.81V131.286C1008.81 134.754 1008.54 138.562 1007.99 141.248H1005.31C1005.78 138.63 1006.09 134.958 1006.09 131.796ZM983.409 149.442V147.062H992.929V132.272H995.683V147.062H1010.47V149.442H983.409ZM1020.67 128.464V131.762H1041.41V134.006H1030.91V137.576H1043.28V139.888H1015.88V137.576H1028.15V134.006H1017.95V126.254H1038.49V122.99H1017.95V120.712H1041.21V128.464H1020.67ZM1038.49 151.312V145.464H1017.71V143.186H1041.21V151.312H1038.49ZM1067.05 139.922C1065.92 143.934 1062.35 147.198 1058.24 148.694V146.178C1062.08 144.444 1065.69 141.01 1065.69 132.612V120.712H1068.41V132.612C1068.41 141.01 1072.04 144.342 1075.82 146.178V148.694C1071.77 147.13 1068.24 143.9 1067.05 139.922ZM1083.84 120.372V150.802H1081.09V134.04H1073.54V131.626H1081.09V120.372H1083.84ZM1095.03 132.102H1104.11V120.916H1106.79V148.66H1092.34V120.916H1095.03V132.102ZM1104.11 146.314V134.482H1095.03V146.314H1104.11ZM1116.48 120.372V150.768H1113.73V120.372H1116.48ZM1137.36 129.824C1135.45 133.836 1131.24 137.474 1124.37 138.8V136.352C1131.37 134.788 1135.96 130.232 1135.96 123.568V120.712H1138.72V123.568C1138.72 130.232 1143.48 134.788 1150.34 136.352V138.8C1143.54 137.406 1139.26 133.836 1137.36 129.824ZM1123.86 149.442V147.062H1150.92V149.442H1123.86Z" fill="white"/>
<g clip-path="url(#clip0_1083_4109)">
<path d="M867.344 174.359H960.682V296.256H867.344V174.359Z" fill="white"/>
<path d="M875.062 226.345H883.851V206.491C883.851 198.328 888.771 194.409 893.296 194.409C899.002 194.409 901.364 198.589 901.364 205.12V226.345H910.152V202.312C910.152 193.887 904.709 187.421 896.116 187.421C890.804 187.421 886.213 189.446 883.851 192.842H883.655V174.359H875.062V226.345Z" fill="#FF5A00"/>
<path d="M916.926 212.892C916.926 222.427 923.026 227.978 932.536 227.978C936.603 227.978 940.669 226.019 943.162 223.08H943.358V226.345H952.016V188.727H943.227V192.45H943.03C940.8 189.38 936.603 187.421 932.536 187.421C923.026 187.421 916.926 192.972 916.926 202.507V212.892ZM925.715 203.487C925.715 198.785 927.683 194.344 933.848 194.344C940.013 194.344 943.227 199.438 943.227 204.14V211.259C943.227 215.961 940.013 221.055 933.848 221.055C927.683 221.055 925.715 216.614 925.715 211.912V203.487Z" fill="#FF5A00"/>
<path d="M973.989 215.768C973.989 222.952 977.137 227.001 987.631 227.001C988.484 227.001 989.664 226.87 990.386 226.674V219.948C989.796 220.013 988.681 220.078 987.631 220.078C984.549 220.143 982.778 219.294 982.778 215.507V195.653H991.37V188.73H982.778V178.934H973.989V188.73H967.758V195.653H973.989V215.768Z" fill="white"/>
<path d="M805.603 226.348H816.031L826.591 185.072L837.151 226.348H847.58L859.386 175.668H850.662L841.939 215.441L831.773 175.668H821.41L811.243 215.441L802.52 175.668H793.797L805.603 226.348Z" fill="white"/>
<path d="M967.586 295.605H976.375V279.539H976.572C978.802 282.608 982.999 284.568 987.066 284.568C996.576 284.568 1002.68 279.016 1002.68 269.481V259.75C1002.68 250.215 996.576 244.664 987.066 244.664C982.999 244.664 978.933 246.623 976.44 249.562H976.244V245.97H967.586V295.605ZM976.375 261.383C976.375 256.681 979.589 251.587 985.754 251.587C991.919 251.587 993.887 256.028 993.887 260.73V268.502C993.887 273.204 991.919 277.645 985.754 277.645C979.589 277.645 976.375 272.551 976.375 267.849V261.383Z" fill="white"/>
<path d="M1009.73 295.605H1018.52V279.539H1018.71C1020.94 282.608 1025.14 284.568 1029.21 284.568C1038.72 284.568 1044.82 279.016 1044.82 269.481V259.75C1044.82 250.215 1038.72 244.664 1029.21 244.664C1025.14 244.664 1021.08 246.623 1018.58 249.562H1018.39V245.97H1009.73V295.605ZM1018.52 261.383C1018.52 256.681 1021.73 251.587 1027.9 251.587C1034.06 251.587 1036.03 256.028 1036.03 260.73V268.502C1036.03 273.204 1034.06 277.645 1027.9 277.645C1021.73 277.645 1018.52 272.551 1018.52 267.849V261.383Z" fill="white"/>
<path d="M1059.68 260.403V259.228C1059.68 254.918 1062.3 251.587 1068.47 251.587C1074.63 251.587 1077.25 254.918 1077.25 259.228V260.403H1059.68ZM1050.89 270.722C1050.89 280.257 1058.43 285.221 1068.47 285.221C1078.83 285.221 1085.98 279.866 1085.98 271.571H1077.19C1077.19 274.771 1074.83 278.298 1068.47 278.298C1062.3 278.298 1059.68 275.163 1059.68 270.788V267.326H1086.04V259.163C1086.04 249.628 1078.5 244.664 1068.47 244.664C1058.43 244.664 1050.89 249.628 1050.89 259.163V270.722Z" fill="white"/>
<path d="M1093.12 283.588H1101.91V263.734C1101.91 255.571 1106.83 251.652 1111.35 251.652C1117.06 251.652 1119.42 255.832 1119.42 262.363V283.588H1128.21V259.554C1128.21 251.13 1122.76 244.664 1114.17 244.664C1108.86 244.664 1104.27 246.689 1101.91 250.085H1101.71V245.97H1093.12V283.588Z" fill="white"/>
<path d="M857.841 249.145C857.841 252.388 855.201 255.017 851.944 255.017C848.687 255.017 846.047 252.388 846.047 249.145C846.047 245.902 848.687 243.273 851.944 243.273C855.201 243.273 857.841 245.902 857.841 249.145Z" fill="white"/>
<path d="M857.841 291.766C857.841 295.009 855.201 297.638 851.944 297.638C848.687 297.638 846.047 295.009 846.047 291.766C846.047 288.523 848.687 285.895 851.944 285.895C855.201 285.895 857.841 288.523 857.841 291.766Z" fill="white"/>
</g>
<defs>
<clipPath id="clip0_1083_4109">
<rect width="346" height="128" fill="white" transform="translate(788 172)"/>
</clipPath>
</defs>
</svg>
