<svg width="852" height="364" viewBox="0 0 852 364" fill="none" xmlns="http://www.w3.org/2000/svg">
<g clip-path="url(#clip0_1083_4161)">
<path d="M224.957 6.71484H489.594V353.359H224.957V6.71484Z" fill="#C8C8C8"/>
<path d="M246.844 154.553H271.763V98.0939C271.763 74.8787 285.71 63.7354 298.541 63.7354C314.72 63.7354 321.414 75.6216 321.414 94.1937V154.553H346.333V86.2077C346.333 62.2496 330.898 43.8631 306.537 43.8631C291.474 43.8631 278.457 49.6205 271.763 59.278H271.205V6.71875H246.844V154.553Z" fill="white"/>
<path d="M365.538 116.295C365.538 143.41 382.832 159.196 409.797 159.196C421.326 159.196 432.856 153.625 439.922 145.267H440.48V154.553H465.027V47.5775H440.108V58.1637H439.551C433.228 49.4348 421.326 43.8631 409.797 43.8631C382.832 43.8631 365.538 59.6495 365.538 86.7649V116.295ZM390.457 89.5507C390.457 76.1787 396.036 63.5496 413.516 63.5496C430.996 63.5496 440.108 78.0359 440.108 91.4079V111.652C440.108 125.024 430.996 139.51 413.516 139.51C396.036 139.51 390.457 126.881 390.457 113.509V89.5507Z" fill="white"/>
<path d="M527.326 124.466C527.326 144.895 536.253 156.41 566.006 156.41C568.424 156.41 571.771 156.039 573.817 155.481V136.352C572.143 136.538 568.982 136.724 566.006 136.724C557.266 136.909 552.245 134.495 552.245 123.723V67.2635H576.606V47.577H552.245V19.7188H527.326V47.577H509.66V67.2635H527.326V124.466Z" fill="#C8C8C8"/>
<path d="M49.9027 154.55H79.4705L109.41 37.1736L139.35 154.55H168.918L202.391 10.4297H177.658L152.925 123.534L124.101 10.4297H94.7193L65.8953 123.534L41.1625 10.4297H16.4297L49.9027 154.55Z" fill="#C8C8C8"/>
<path d="M509.164 351.504H534.083V305.816H534.641C540.963 314.545 552.865 320.117 564.394 320.117C591.359 320.117 608.653 304.33 608.653 277.215V249.542C608.653 222.427 591.359 206.641 564.394 206.641C552.865 206.641 541.335 212.212 534.269 220.57H533.711V210.355H509.164V351.504ZM534.083 254.185C534.083 240.813 543.195 226.327 560.675 226.327C578.156 226.327 583.734 238.956 583.734 252.328V274.429C583.734 287.801 578.156 300.43 560.675 300.43C543.195 300.43 534.083 285.944 534.083 272.572V254.185Z" fill="#C8C8C8"/>
<path d="M628.65 351.504H653.569V305.816H654.127C660.45 314.545 672.351 320.117 683.881 320.117C710.845 320.117 728.139 304.33 728.139 277.215V249.542C728.139 222.427 710.845 206.641 683.881 206.641C672.351 206.641 660.821 212.212 653.755 220.57H653.197V210.355H628.65V351.504ZM653.569 254.185C653.569 240.813 662.681 226.327 680.161 226.327C697.642 226.327 703.221 238.956 703.221 252.328V274.429C703.221 287.801 697.642 300.43 680.161 300.43C662.681 300.43 653.569 285.944 653.569 272.572V254.185Z" fill="#C8C8C8"/>
<path d="M770.266 251.4V248.057C770.266 235.799 777.704 226.327 795.184 226.327C812.665 226.327 820.103 235.799 820.103 248.057V251.4H770.266ZM745.347 280.744C745.347 307.859 766.732 321.974 795.184 321.974C824.566 321.974 844.836 306.745 844.836 283.158H819.917C819.917 292.258 813.223 302.287 795.184 302.287C777.704 302.287 770.266 293.373 770.266 280.929V271.086H845.022V247.871C845.022 220.755 823.636 206.641 795.184 206.641C766.732 206.641 745.347 220.755 745.347 247.871V280.744Z" fill="#C8C8C8"/>
<path d="M865.08 317.331H889.999V260.871C889.999 237.656 903.946 226.513 916.777 226.513C932.956 226.513 939.65 238.399 939.65 256.971V317.331H964.569V248.985C964.569 225.027 949.134 206.641 924.773 206.641C909.711 206.641 896.693 212.398 889.999 222.056H889.441V210.355H865.08V317.331Z" fill="#C8C8C8"/>
<path d="M198.013 219.393C198.013 228.615 190.527 236.091 181.293 236.091C172.06 236.091 164.574 228.615 164.574 219.393C164.574 210.171 172.06 202.695 181.293 202.695C190.527 202.695 198.013 210.171 198.013 219.393Z" fill="#C8C8C8"/>
<path d="M198.013 340.588C198.013 349.81 190.527 357.286 181.293 357.286C172.06 357.286 164.574 349.81 164.574 340.588C164.574 331.366 172.06 323.891 181.293 323.891C190.527 323.891 198.013 331.366 198.013 340.588Z" fill="#C8C8C8"/>
</g>
<defs>
<clipPath id="clip0_1083_4161">
<rect width="981" height="364" fill="white"/>
</clipPath>
</defs>
</svg>
