<svg width="64" height="64" viewBox="0 0 64 64" fill="none" xmlns="http://www.w3.org/2000/svg">
<circle cx="32" cy="32" r="29" transform="rotate(-180 32 32)" fill="white" stroke="#EFEFEF" stroke-width="6"/>
<path fill-rule="evenodd" clip-rule="evenodd" d="M32.0001 44C31.1164 44 30.4001 43.3284 30.4001 42.5L30.4001 21.5C30.4001 20.6716 31.1164 20 32.0001 20C32.8838 20 33.6001 20.6716 33.6001 21.5L33.6001 42.5C33.6001 43.3284 32.8838 44 32.0001 44Z" fill="#111111"/>
<path fill-rule="evenodd" clip-rule="evenodd" d="M33.0607 43.5574C32.4749 44.1475 31.5251 44.1475 30.9393 43.5574L20.4393 32.9796C19.8536 32.3895 19.8536 31.4327 20.4393 30.8426C21.0251 30.2525 21.9749 30.2525 22.5607 30.8426L32 40.3519L41.4393 30.8426C42.0251 30.2525 42.9749 30.2525 43.5607 30.8426C44.1464 31.4327 44.1464 32.3895 43.5607 32.9796L33.0607 43.5574Z" fill="#111111"/>
</svg>
