<svg width="108" height="40" viewBox="0 0 108 40" fill="none" xmlns="http://www.w3.org/2000/svg">
<g clip-path="url(#clip0_591_1264)">
<path d="M24.7659 0.737793H53.9002V38.8306H24.7659V0.737793Z" fill="#FF5A00"/>
<path d="M27.1753 16.9836H29.9186V10.7793C29.9186 8.22814 31.4541 7.0036 32.8667 7.0036C34.6479 7.0036 35.3849 8.30977 35.3849 10.3507V16.9836H38.1282V9.47309C38.1282 6.84033 36.429 4.81984 33.7471 4.81984C32.0888 4.81984 30.6557 5.45252 29.9186 6.51378H29.8572V0.738037H27.1753V16.9836Z" fill="white"/>
<path d="M40.2426 12.7793C40.2426 15.7591 42.1465 17.4938 45.1151 17.4938C46.3844 17.4938 47.6537 16.8816 48.4317 15.9631H48.4931V16.9836H51.1955V5.22801H48.4521V6.39133H48.3907C47.6946 5.43211 46.3844 4.81984 45.1151 4.81984C42.1465 4.81984 40.2426 6.5546 40.2426 9.53431V12.7793ZM42.9859 9.84045C42.9859 8.371 43.6001 6.98319 45.5245 6.98319C47.449 6.98319 48.4521 8.57509 48.4521 10.0445V12.2691C48.4521 13.7386 47.449 15.3305 45.5245 15.3305C43.6001 15.3305 42.9859 13.9427 42.9859 12.4732V9.84045Z" fill="white"/>
<path d="M58.0543 13.6774C58.0543 15.9224 59.037 17.1878 62.3126 17.1878C62.5788 17.1878 62.9473 17.147 63.1725 17.0857V14.9836C62.9882 15.004 62.6402 15.0244 62.3126 15.0244C61.3504 15.0448 60.7976 14.7795 60.7976 13.5958V7.39145H63.4796V5.2281H60.7976V2.16675H58.0543V5.2281H56.1094V7.39145H58.0543V13.6774Z" fill="#111111"/>
<path d="M5.49394 16.9836H8.74911L12.0452 4.08514L15.3413 16.9836H18.5965L22.2816 1.14624H19.5587L16.8359 13.5753L13.6626 1.14624H10.4279L7.2546 13.5753L4.53172 1.14624H1.80884L5.49394 16.9836Z" fill="#111111"/>
<path d="M56.0549 38.6265H58.7983V33.6059H58.8597C59.5558 34.5651 60.866 35.1774 62.1353 35.1774C65.1039 35.1774 67.0079 33.4427 67.0079 30.4629V27.422C67.0079 24.4423 65.1039 22.7075 62.1353 22.7075C60.866 22.7075 59.5967 23.3198 58.8188 24.2382H58.7573V23.1157H56.0549V38.6265ZM58.7983 27.9322C58.7983 26.4628 59.8014 24.8709 61.7259 24.8709C63.6503 24.8709 64.2645 26.2587 64.2645 27.7281V30.1568C64.2645 31.6263 63.6503 33.0141 61.7259 33.0141C59.8014 33.0141 58.7983 31.4222 58.7983 29.9527V27.9322Z" fill="#111111"/>
<path d="M69.2094 38.6265H71.9527V33.6059H72.0141C72.7102 34.5651 74.0205 35.1774 75.2898 35.1774C78.2583 35.1774 80.1623 33.4427 80.1623 30.4629V27.422C80.1623 24.4423 78.2583 22.7075 75.2898 22.7075C74.0205 22.7075 72.7512 23.3198 71.9732 24.2382H71.9118V23.1157H69.2094V38.6265ZM71.9527 27.9322C71.9527 26.4628 72.9559 24.8709 74.8803 24.8709C76.8048 24.8709 77.4189 26.2587 77.4189 27.7281V30.1568C77.4189 31.6263 76.8048 33.0141 74.8803 33.0141C72.9559 33.0141 71.9527 31.4222 71.9527 29.9527V27.9322Z" fill="#111111"/>
<path d="M84.8001 27.6261V27.2587C84.8001 25.9117 85.619 24.8709 87.5434 24.8709C89.4679 24.8709 90.2868 25.9117 90.2868 27.2587V27.6261H84.8001ZM82.0567 30.8507C82.0567 33.8304 84.4111 35.3815 87.5434 35.3815C90.7781 35.3815 93.0096 33.708 93.0096 31.116H90.2663C90.2663 32.1161 89.5293 33.2182 87.5434 33.2182C85.619 33.2182 84.8001 32.2385 84.8001 30.8711V29.7894H93.0301V27.2383C93.0301 24.2586 90.6757 22.7075 87.5434 22.7075C84.4111 22.7075 82.0567 24.2586 82.0567 27.2383V30.8507Z" fill="#111111"/>
<path d="M95.2383 34.8713H97.9817V28.6669C97.9817 26.1158 99.5171 24.8913 100.93 24.8913C102.711 24.8913 103.448 26.1975 103.448 28.2384V34.8713H106.191V27.3608C106.191 24.728 104.492 22.7075 101.81 22.7075C100.152 22.7075 98.7187 23.3402 97.9817 24.4015H97.9203V23.1157H95.2383V34.8713Z" fill="#111111"/>
<path d="M21.7995 24.1088C21.7995 25.1222 20.9754 25.9438 19.9588 25.9438C18.9423 25.9438 18.1182 25.1222 18.1182 24.1088C18.1182 23.0954 18.9423 22.2739 19.9588 22.2739C20.9754 22.2739 21.7995 23.0954 21.7995 24.1088Z" fill="#FF5A00"/>
<path d="M21.7995 37.4272C21.7995 38.4406 20.9754 39.2621 19.9588 39.2621C18.9423 39.2621 18.1182 38.4406 18.1182 37.4272C18.1182 36.4138 18.9423 35.5923 19.9588 35.5923C20.9754 35.5923 21.7995 36.4138 21.7995 37.4272Z" fill="#FF5A00"/>
</g>
<defs>
<clipPath id="clip0_591_1264">
<rect width="108" height="40" fill="white"/>
</clipPath>
</defs>
</svg>
