<svg width="848" height="486" viewBox="0 0 848 486" fill="none" xmlns="http://www.w3.org/2000/svg">
<rect opacity="0.2" x="12" y="16" width="836" height="470" rx="12" fill="#C8C8C8"/>
<rect width="836" height="470" rx="12" fill="white"/>
<path d="M361.02 211.46H374.76V253.94H379.98V211.46H393.72V206.9H361.02V211.46ZM404.086 227.48V211.46H414.886C421.546 211.46 424.786 213.98 424.786 219.5C424.786 224.96 421.546 227.48 414.886 227.48H404.086ZM416.806 253.94C426.466 253.94 431.326 249.62 431.326 240.98C431.326 234.86 428.206 230.6 422.506 229.58C427.006 228.56 429.946 224.84 429.946 219.14C429.946 211.28 425.266 206.9 416.026 206.9H398.866V253.94H416.806ZM426.106 240.74C426.106 246.5 423.166 249.44 415.606 249.44H404.086V232.04H415.606C423.166 232.04 426.106 234.92 426.106 240.74ZM466.775 230.42C466.775 242.66 463.715 249.38 453.935 249.38H443.135V211.46H453.935C463.655 211.46 466.775 218.24 466.775 230.42ZM454.355 253.94C468.815 253.94 471.995 242.84 471.995 230.42C471.995 218.06 468.755 206.9 454.355 206.9H437.915V253.94H454.355Z" fill="#FF5A00"/>
</svg>
