<svg width="84" height="84" viewBox="0 0 84 84" fill="none" xmlns="http://www.w3.org/2000/svg">
<path fill-rule="evenodd" clip-rule="evenodd" d="M1.66406 6.29999C1.11178 6.29999 0.664062 6.7477 0.664062 7.29999V32.1852C0.664062 32.1903 0.6641 32.1953 0.664176 32.2004V67.7496C0.664176 68.3019 1.11189 68.7496 1.66417 68.7496H69.6641C70.2164 68.7496 70.6641 68.3019 70.6641 67.7496V18.4163C70.6641 17.8641 70.2164 17.4163 69.6641 17.4163H32.7954L26.7187 6.80311C26.5406 6.49195 26.2095 6.29999 25.8509 6.29999H1.66406Z" fill="#FFA234"/>
<path d="M9.18682 27.5321C9.28874 27.0749 9.69441 26.7497 10.1629 26.7497H78.2008C78.8398 26.7497 79.3148 27.3408 79.1774 27.9648L70.3684 67.9647C70.2674 68.4231 69.8612 68.7496 69.3918 68.7496H1.24742C0.607413 68.7496 0.132143 68.1568 0.271375 67.5321L9.18682 27.5321Z" fill="#FFD234"/>
<circle cx="66.5" cy="60.6548" r="17.5" fill="#77D83B"/>
<path fill-rule="evenodd" clip-rule="evenodd" d="M68.8333 52.4877C68.8333 51.1991 67.7886 50.1544 66.5 50.1544C65.2113 50.1544 64.1667 51.1991 64.1667 52.4877V58.3211H58.3333C57.0447 58.3211 56 59.3657 56 60.6544C56 61.9431 57.0447 62.9877 58.3333 62.9877H64.1667V68.8211C64.1667 70.1097 65.2113 71.1544 66.5 71.1544C67.7886 71.1544 68.8333 70.1097 68.8333 68.8211V62.9877H74.6666C75.9553 62.9877 77 61.9431 77 60.6544C77 59.3657 75.9553 58.3211 74.6666 58.3211H68.8333V52.4877Z" fill="white"/>
</svg>
