<svg width="84" height="84" viewBox="0 0 84 84" fill="none" xmlns="http://www.w3.org/2000/svg">
<ellipse cx="41.8118" cy="77.6771" rx="9.33764" ry="6.32287" fill="#A3A3A3"/>
<path d="M24.584 58.4683H59.2182V77.2855C59.2182 78.39 58.3228 79.2855 57.2182 79.2855H26.584C25.4794 79.2855 24.584 78.39 24.584 77.2855V58.4683Z" fill="#D9D9D9"/>
<rect x="28.001" y="61.5742" width="27.621" height="3.33697" rx="1.66848" fill="#A3A3A3"/>
<rect x="28.001" y="67.208" width="27.621" height="3.33697" rx="1.66848" fill="#A3A3A3"/>
<rect x="28.0898" y="72.842" width="27.621" height="3.33697" rx="1.66848" fill="#A3A3A3"/>
<path fill-rule="evenodd" clip-rule="evenodd" d="M68.2178 26.0589C68.2178 30.5599 67.0767 34.7944 65.0679 38.4888C63.8133 41.0143 61.9032 44.2564 59.6835 47.3879C56.5016 51.8767 56.511 56.6449 56.9134 58.4678H43.1966H41.0057H27.2917C27.694 56.6449 27.7034 51.8767 24.522 47.3879C21.1208 42.5888 18.4468 37.5298 17.7442 35.1886C16.6813 32.3474 16.1001 29.271 16.1001 26.0589C16.1001 11.667 27.767 0 42.159 0C56.5509 0 68.2178 11.667 68.2178 26.0589Z" fill="#FFD234"/>
<path fill-rule="evenodd" clip-rule="evenodd" d="M41.8169 23.4409L35.9888 28.4571C35.8259 28.5973 35.5917 28.6177 35.407 28.5079L27.7087 23.9281L36.1409 51.6201C36.2214 51.8843 36.0724 52.1636 35.8083 52.2441C35.5441 52.3245 35.2648 52.1756 35.1843 51.9114L26.3757 22.9835C26.3156 22.786 26.383 22.5718 26.5456 22.4444C26.7081 22.317 26.9322 22.3026 27.1097 22.4082L35.6091 27.4645L41.4249 22.4589C41.5374 22.3621 41.6806 22.3242 41.817 22.3423C41.9535 22.3242 42.0968 22.3622 42.2093 22.4591L48.0206 27.4644L56.5136 22.4083C56.691 22.3026 56.9152 22.317 57.0777 22.4443C57.2403 22.5717 57.3078 22.7859 57.2477 22.9835L48.4454 51.9113C48.365 52.1755 48.0857 52.3245 47.8215 52.2441C47.5573 52.1637 47.4083 51.8844 47.4887 51.6202L55.9149 23.9285L48.2228 28.5078C48.0381 28.6178 47.8037 28.5973 47.6408 28.457L41.8169 23.4409Z" fill="#FFA234"/>
</svg>
