<svg width="84" height="84" viewBox="0 0 84 84" fill="none" xmlns="http://www.w3.org/2000/svg">
<g clip-path="url(#clip0_1083_4117)">
<path d="M60.6002 28.6171C60.6002 43.212 55.6904 55.0435 42.2342 55.0435C29.7159 55.0435 23.8682 43.212 23.8682 28.6171C23.8682 14.0222 32.0909 2.19067 42.2342 2.19067C52.3775 2.19067 60.6002 14.0222 60.6002 28.6171Z" fill="#FFD234"/>
<path fill-rule="evenodd" clip-rule="evenodd" d="M24.2525 33.879V24.5256L26.9132 22.5904L27.8002 16.4623H42.2335V0.658203C37.5652 0.658196 27.8005 1.46454 24.2525 10.1729C20.7045 18.8813 22.7742 29.6054 24.2525 33.879ZM60.2296 33.879V24.5256L57.5668 22.5904L56.6791 16.4623H42.2344V0.658203C46.8904 0.658196 56.6788 1.46454 60.2296 10.1729C63.7804 18.8813 61.7091 29.6054 60.2296 33.879Z" fill="black"/>
<ellipse cx="50.7753" cy="31.819" rx="2.52681" ry="3.20081" fill="black"/>
<path d="M49.2676 24.0428C50.4226 23.1694 53.0793 22.1949 54.4657 25.284" stroke="black" stroke-width="0.6" stroke-linecap="round"/>
<ellipse rx="2.53709" ry="3.20081" transform="matrix(-1 0 0 1 34.5156 31.819)" fill="black"/>
<path d="M36.0303 24.0428C34.8705 23.1694 32.203 22.1949 30.811 25.284" stroke="black" stroke-width="0.6" stroke-linecap="round"/>
<path d="M19.112 31.9231C18.618 30.4824 19.6886 28.9834 21.2118 28.9834C21.9356 28.9834 22.6139 29.3363 23.0294 29.9289L27.8365 36.7857C29.1372 38.6411 28.2964 41.2257 26.153 41.9607C24.3744 42.5706 22.4381 41.6231 21.8282 39.8444L19.112 31.9231Z" fill="#FFD234"/>
<path d="M65.5823 30.723C65.9782 29.2524 64.8092 27.8291 63.2897 27.9316C62.5677 27.9804 61.9148 28.378 61.5402 28.9972L57.2052 36.1627C56.0325 38.1012 57.0452 40.623 59.233 41.212C61.0484 41.7008 62.9164 40.6253 63.4052 38.8098L65.5823 30.723Z" fill="#FFD234"/>
<path d="M41.821 47.511C11.1533 47.511 1.404 72.2757 0.362793 84.658H84.131C82.8058 72.2757 72.4886 47.511 41.821 47.511Z" fill="#B946FF"/>
<path d="M6.69455 46.8066C6.66001 46.2317 7.11688 45.7466 7.69275 45.7466H76.8004C77.3763 45.7466 77.8332 46.2317 77.7986 46.8066L75.5243 84.6582H8.9689L6.69455 46.8066Z" fill="#D9D9D9"/>
<ellipse cx="42.2466" cy="66.0847" rx="8.54933" ry="5.18111" fill="#BABABA"/>
</g>
<defs>
<clipPath id="clip0_1083_4117">
<rect width="84" height="84" fill="white"/>
</clipPath>
</defs>
</svg>
